<mxfile host="app.diagrams.net" modified="2023-06-29T19:37:01.991Z" agent="Mozilla/5.0 (Macintosh; Intel Mac OS X 10_15_7) AppleWebKit/537.36 (KHTML, like Gecko) Chrome/111.0.0.0 Safari/537.36" version="21.5.2" etag="ckpHDUhTgqYlA7ybk0kX" type="github">
  <diagram name="Page-1" id="PPK9O-KlpQqtO-ogokgK">
    <mxGraphModel>
      <root>
        <mxCell id="0" />
        <mxCell id="1" parent="0" />
      </root>
    </mxGraphModel>
  </diagram>
</mxfile>
